<?xml version="1.0" standalone="no"?>
<!DOCTYPE svg PUBLIC "-//W3C//DTD SVG 20010904//EN"
 "http://www.w3.org/TR/2001/REC-SVG-20010904/DTD/svg10.dtd">
<svg version="1.0" xmlns="http://www.w3.org/2000/svg"
 width="512.000000pt" height="512.000000pt" viewBox="0 0 512.000000 512.000000"
 preserveAspectRatio="xMidYMid meet">

<g transform="translate(0.000000,512.000000) scale(0.100000,-0.100000)"
fill="#d32f2f" stroke="none">
<path d="M2195 4173 c-142 -346 -258 -633 -258 -639 0 -8 132 -193 164 -228 6
-6 49 3 114 24 142 46 145 45 215 -92 30 -60 58 -108 61 -108 4 0 26 29 49 65
70 107 89 109 221 21 l97 -65 66 99 c79 120 88 124 198 87 l78 -25 0 99 c0 91
-7 127 -80 419 -44 176 -80 329 -80 341 0 13 30 53 80 103 l80 82 0 152 0 151
-67 20 c-411 120 -413 121 -550 121 l-129 0 -259 -627z m862 383 c1 -1 -2 -18
-7 -37 -5 -19 -14 -53 -19 -75 l-11 -42 -157 40 c-87 22 -159 40 -160 42 -1 1
2 18 7 37 5 19 14 53 19 75 l11 42 157 -40 c87 -22 159 -40 160 -42z"/>
<path d="M3362 4533 l3 -76 100 -34 c89 -30 106 -39 158 -91 l58 -57 -3 114
-3 114 -158 53 -158 53 3 -76z"/>
<path d="M567 4461 c-33 -60 -43 -126 -28 -186 6 -25 68 -146 136 -269 71
-128 125 -236 125 -251 0 -34 -42 -75 -76 -75 -15 0 -90 39 -184 95 -87 52
-160 95 -163 95 -3 0 -8 -27 -12 -59 -10 -86 12 -155 67 -207 24 -23 108 -90
188 -149 80 -59 153 -116 163 -127 25 -29 22 -74 -8 -103 -24 -25 -25 -25
-230 -25 -238 0 -237 0 -152 -83 68 -69 99 -77 286 -77 148 0 153 -1 176 -25
16 -15 25 -35 25 -56 0 -29 -21 -54 -175 -209 -96 -97 -175 -178 -175 -182 0
-7 82 -28 113 -28 13 0 47 7 76 16 46 13 70 32 171 130 100 96 123 114 150
114 36 0 80 -38 80 -70 0 -16 -120 -451 -137 -497 -8 -20 36 -25 91 -9 83 25
111 64 169 240 51 154 66 176 120 176 16 0 38 -10 50 -23 20 -19 27 -51 56
-257 18 -129 35 -243 37 -252 5 -17 7 -17 37 -2 40 20 104 81 123 116 7 14 39
115 69 224 l56 197 -7 226 c-4 124 -11 236 -15 249 -5 12 -17 22 -27 22 -16 0
-29 -34 -82 -220 -51 -180 -66 -220 -79 -216 -109 30 -131 38 -131 49 0 6 28
108 61 226 60 212 64 238 31 249 -6 2 -70 -85 -142 -192 -71 -108 -133 -196
-136 -196 -10 0 -124 81 -124 88 0 4 58 94 129 201 l130 194 -47 43 c-26 24
-49 43 -52 43 -3 0 -48 -58 -100 -128 l-95 -128 -40 28 c-22 16 -51 38 -64 48
l-25 19 102 136 c56 75 102 139 102 143 0 4 -12 19 -26 34 l-27 28 -88 -60
c-49 -33 -96 -62 -103 -65 -9 -4 -29 16 -55 55 -23 33 -41 62 -41 65 0 3 42
33 93 67 50 34 93 63 95 64 2 2 -30 54 -71 116 -126 195 -274 477 -332 632
-10 26 -21 47 -25 47 -4 0 -19 -22 -33 -49z"/>
<path d="M4480 4428 c-55 -138 -195 -404 -294 -563 l-94 -150 94 -63 c52 -34
94 -65 94 -68 0 -3 -18 -32 -41 -65 -26 -39 -46 -59 -55 -55 -7 3 -54 32 -103
65 l-89 60 -19 -22 c-11 -12 -23 -27 -27 -34 -4 -7 35 -68 95 -148 56 -74 100
-138 97 -140 -3 -3 -31 -25 -64 -49 l-58 -44 -93 124 c-51 68 -96 124 -99 124
-10 0 -94 -72 -94 -81 0 -5 54 -91 121 -190 66 -99 122 -186 125 -194 4 -8
-17 -29 -55 -54 -33 -23 -62 -41 -65 -41 -3 0 -64 88 -136 195 -121 181 -132
194 -150 183 -11 -7 -20 -17 -20 -23 0 -6 29 -110 63 -232 l64 -221 -73 -21
c-40 -12 -74 -21 -77 -21 -2 0 -32 99 -67 220 -50 174 -66 220 -79 218 -23 -5
-28 -46 -36 -291 l-7 -222 52 -190 c29 -104 58 -202 66 -216 19 -38 70 -87
115 -109 35 -19 38 -19 43 -2 2 9 19 123 37 252 29 206 36 238 56 257 12 13
34 23 50 23 54 0 68 -21 123 -184 45 -138 56 -159 90 -190 56 -51 167 -75 164
-36 -1 8 -32 122 -69 252 -45 158 -65 245 -61 262 8 32 59 60 94 51 14 -3 76
-55 137 -115 95 -93 118 -110 165 -124 29 -9 67 -16 84 -16 37 0 106 18 106
28 0 3 -79 85 -175 182 -154 155 -175 180 -175 209 0 21 9 41 25 56 23 24 28
25 176 25 187 0 218 8 287 77 84 83 85 83 -153 83 -205 0 -206 0 -230 25 -30
29 -33 74 -7 103 9 11 82 68 162 127 241 179 254 196 254 322 0 45 -3 85 -6
89 -4 3 -79 -37 -166 -90 -95 -57 -171 -96 -186 -96 -34 0 -76 41 -76 75 0 15
54 123 125 251 132 236 151 287 141 361 -6 43 -52 143 -66 143 -3 0 -21 -37
-40 -82z"/>
<path d="M1933 3128 c4 -73 18 -473 32 -888 14 -415 28 -783 31 -817 l6 -63
96 0 97 1 152 268 c168 294 179 308 243 281 25 -11 55 -57 183 -281 l152 -269
97 0 97 0 5 43 c4 33 57 1323 69 1671 l2 69 -50 18 c-27 9 -56 18 -62 18 -7 1
-44 -46 -82 -103 -38 -57 -77 -106 -86 -110 -36 -14 -64 -3 -156 58 l-97 65
-66 -99 c-70 -105 -93 -122 -145 -104 -20 7 -41 39 -98 149 -39 77 -75 140
-80 140 -5 0 -50 -13 -100 -29 -57 -18 -100 -27 -116 -22 -16 4 -43 31 -73 71
-26 36 -50 65 -52 65 -3 0 -2 -60 1 -132z m749 -473 c54 -36 101 -65 106 -65
4 0 30 23 57 50 27 28 54 50 59 50 14 0 106 -92 106 -105 0 -6 -40 -50 -89
-98 -69 -68 -95 -87 -117 -87 -18 0 -66 25 -136 71 l-108 72 -108 -72 c-70
-46 -118 -71 -136 -71 -22 0 -48 19 -117 87 -49 48 -89 91 -89 97 0 14 91 106
105 106 6 0 33 -22 60 -50 27 -27 53 -50 57 -50 5 0 52 29 106 65 55 37 108
65 122 65 14 0 67 -28 122 -65z"/>
<path d="M1767 1829 c-61 -32 -264 -96 -362 -114 -49 -9 -101 -19 -114 -21
-21 -4 -15 -11 50 -60 87 -64 99 -78 99 -116 0 -51 -35 -74 -136 -88 -84 -12
-237 -9 -306 6 -40 9 -35 -8 19 -62 166 -166 398 -137 695 86 59 44 110 85
114 91 8 13 -6 299 -15 299 -3 -1 -23 -10 -44 -21z"/>
<path d="M1977 1193 c-2 -5 -19 -52 -36 -105 -18 -53 -38 -102 -46 -108 -7 -6
-57 -26 -111 -44 l-99 -33 -3 -89 c-1 -65 7 -143 31 -287 19 -108 37 -200 41
-204 14 -14 22 19 56 224 43 263 35 253 190 253 155 0 147 10 190 -253 34
-205 42 -238 56 -224 4 4 22 96 41 204 24 144 32 222 31 287 l-3 89 -100 34
c-144 47 -154 64 -111 191 l25 72 -74 0 c-41 0 -76 -3 -78 -7z"/>
<path d="M3015 1129 c44 -128 34 -144 -110 -192 l-100 -34 -3 -89 c-1 -65 7
-143 31 -287 19 -108 37 -200 41 -204 14 -14 22 19 56 224 43 263 35 253 190
253 155 0 147 10 190 -253 34 -205 42 -238 56 -224 4 4 22 96 41 204 24 144
32 222 31 287 l-3 89 -100 34 c-54 18 -105 39 -112 46 -7 7 -28 58 -46 112
l-34 100 -76 3 -76 3 24 -72z"/>
<path d="M1200 640 l0 -160 180 0 180 0 -5 23 c-15 70 -35 209 -35 250 l0 47
-160 0 -160 0 0 -160z"/>
<path d="M2480 753 c0 -41 -20 -180 -35 -250 -5 -23 -5 -23 115 -23 120 0 120
0 115 23 -15 70 -35 209 -35 250 l0 47 -80 0 -80 0 0 -47z"/>
<path d="M3600 753 c0 -41 -20 -180 -35 -250 l-5 -23 180 0 180 0 0 160 0 160
-160 0 -160 0 0 -47z"/>
<path d="M1986 623 c-2 -10 -7 -38 -11 -63 -4 -25 -9 -53 -11 -62 -5 -15 1
-18 36 -18 35 0 41 3 36 18 -2 9 -7 37 -11 62 -9 61 -15 80 -25 80 -5 0 -11
-8 -14 -17z"/>
<path d="M3106 623 c-2 -10 -7 -38 -11 -63 -4 -25 -9 -53 -11 -62 -5 -15 1
-18 36 -18 35 0 41 3 36 18 -2 9 -7 37 -11 62 -9 61 -15 80 -25 80 -5 0 -11
-8 -14 -17z"/>
</g>
</svg>
